<svg width="35" height="35" viewBox="0 0 35 35" fill="none" xmlns="http://www.w3.org/2000/svg">
<path d="M32.0834 14.7291C32.2292 14 31.6459 13.125 30.9167 13.125L22.6042 11.9583L18.8125 4.37495C18.6667 4.08328 18.5209 3.93745 18.2292 3.79162C17.5 3.35412 16.625 3.64578 16.1875 4.37495L12.5417 11.9583L4.22919 13.125C3.79169 13.125 3.50002 13.2708 3.35419 13.5625C2.77085 14.1458 2.77085 15.0208 3.35419 15.6041L9.33335 21.4375L7.87502 29.75C7.87502 30.0416 7.87502 30.3333 8.02085 30.625C8.45835 31.3541 9.33335 31.6458 10.0625 31.2083L17.5 27.2708L24.9375 31.2083C25.0834 31.3541 25.375 31.3541 25.6667 31.3541H25.9584C26.6875 31.2083 27.2709 30.4791 27.125 29.6041L25.6667 21.2916L31.6459 15.4583C31.9375 15.3125 32.0834 15.0208 32.0834 14.7291Z" fill="#FFFF00"/>
</svg>
